<svg width="49" height="38" viewBox="0 0 49 38" fill="none" xmlns="http://www.w3.org/2000/svg">
<path d="M45 28C47.2091 28 49 29.7909 49 32V34C49 36.2091 47.2091 38 45 38H4C1.79086 38 3.22133e-08 36.2091 0 34V32C0 29.7909 1.79086 28 4 28H45ZM45 14C47.2091 14 49 15.7909 49 18V20C49 22.2091 47.2091 24 45 24H4C1.79086 24 3.22133e-08 22.2091 0 20V18C0 15.7909 1.79086 14 4 14H45ZM45 0C47.2091 5.47618e-07 49 1.79086 49 4V6C49 8.20914 47.2091 10 45 10H4C1.79086 10 3.22133e-08 8.20914 0 6V4C0 1.79086 1.79086 0 4 0H45Z" fill="#484747"/>
</svg>
