<svg width="64" height="64" viewBox="0 0 64 64" fill="none" xmlns="http://www.w3.org/2000/svg">
<mask id="path-1-inside-1_29_295" fill="white">
<path d="M56 0C60.4183 0 64 3.58172 64 8V56C64 60.4183 60.4183 64 56 64H8C3.58172 64 0 60.4183 0 56V8C0 3.58172 3.58172 0 8 0H56ZM29.3281 15.4844V20.1484C24.2656 20.8672 21.7344 23.375 21.7344 27.6719C21.7344 32.5938 24.2344 35.0547 29.2344 35.0547H33.6875C35.4844 35.0547 36.3828 35.875 36.3828 37.5156C36.3828 39.2344 35.0469 40.0938 32.375 40.0938C28.7969 40.0938 25.6406 39.5469 22.9062 38.4531V43.6094C24.875 44.2812 27.0156 44.7109 29.3281 44.8984V49H35.3047V44.8047C40.1641 44.1016 42.5938 41.5938 42.5938 37.2812C42.5938 32.3594 39.8594 29.8984 34.3906 29.8984H30.4062C28.4531 29.8984 27.4766 29.0781 27.4766 27.4375C27.4766 25.7188 29.1562 24.8594 32.5156 24.8594C35.7188 24.8594 38.6875 25.4062 41.4219 26.5V21.3438C39.4688 20.6719 37.4297 20.2422 35.3047 20.0547V15.4844H29.3281Z"/>
</mask>
<path d="M56 0C60.4183 0 64 3.58172 64 8V56C64 60.4183 60.4183 64 56 64H8C3.58172 64 0 60.4183 0 56V8C0 3.58172 3.58172 0 8 0H56ZM29.3281 15.4844V20.1484C24.2656 20.8672 21.7344 23.375 21.7344 27.6719C21.7344 32.5938 24.2344 35.0547 29.2344 35.0547H33.6875C35.4844 35.0547 36.3828 35.875 36.3828 37.5156C36.3828 39.2344 35.0469 40.0938 32.375 40.0938C28.7969 40.0938 25.6406 39.5469 22.9062 38.4531V43.6094C24.875 44.2812 27.0156 44.7109 29.3281 44.8984V49H35.3047V44.8047C40.1641 44.1016 42.5938 41.5938 42.5938 37.2812C42.5938 32.3594 39.8594 29.8984 34.3906 29.8984H30.4062C28.4531 29.8984 27.4766 29.0781 27.4766 27.4375C27.4766 25.7188 29.1562 24.8594 32.5156 24.8594C35.7188 24.8594 38.6875 25.4062 41.4219 26.5V21.3438C39.4688 20.6719 37.4297 20.2422 35.3047 20.0547V15.4844H29.3281Z" fill="#FF2056"/>
<path d="M0 8H-2H0ZM29.3281 15.4844V13.4844H27.3281V15.4844H29.3281ZM29.3281 20.1484L29.6093 22.1286L31.3281 21.8845V20.1484H29.3281ZM22.9062 38.4531L23.649 36.5962L20.9062 35.4991V38.4531H22.9062ZM22.9062 43.6094H20.9062V45.0401L22.2603 45.5022L22.9062 43.6094ZM29.3281 44.8984H31.3281V43.054L29.4898 42.905L29.3281 44.8984ZM29.3281 49H27.3281V51H29.3281V49ZM35.3047 49V51H37.3047V49H35.3047ZM35.3047 44.8047L35.0183 42.8253L33.3047 43.0732V44.8047H35.3047ZM41.4219 26.5L40.6791 28.357L43.4219 29.4541V26.5H41.4219ZM41.4219 21.3438H43.4219V19.9167L42.0725 19.4525L41.4219 21.3438ZM35.3047 20.0547H33.3047V21.886L35.1289 22.0469L35.3047 20.0547ZM35.3047 15.4844H37.3047V13.4844H35.3047V15.4844ZM56 0V2C59.3137 2 62 4.68629 62 8H64H66C66 2.47715 61.5228 -2 56 -2V0ZM64 8H62V56H64H66V8H64ZM64 56H62C62 59.3137 59.3137 62 56 62V64V66C61.5228 66 66 61.5228 66 56H64ZM56 64V62H8V64V66H56V64ZM8 64V62C4.68629 62 2 59.3137 2 56H0H-2C-2 61.5228 2.47715 66 8 66V64ZM0 56H2V8H0H-2V56H0ZM0 8H2C2 4.68629 4.68629 2 8 2V0V-2C2.47715 -2 -2 2.47715 -2 8H0ZM8 0V2H56V0V-2H8V0ZM29.3281 15.4844H27.3281V20.1484H29.3281H31.3281V15.4844H29.3281ZM29.3281 20.1484L29.047 18.1683C26.2688 18.5627 23.9038 19.4846 22.2252 21.1476C20.5044 22.8525 19.7344 25.1074 19.7344 27.6719H21.7344H23.7344C23.7344 25.9395 24.23 24.7921 25.0404 23.9891C25.8931 23.1443 27.3249 22.4529 29.6093 22.1286L29.3281 20.1484ZM21.7344 27.6719H19.7344C19.7344 30.4491 20.4422 32.8977 22.2063 34.6343C23.9647 36.3652 26.4339 37.0547 29.2344 37.0547V35.0547V33.0547C27.0348 33.0547 25.754 32.5137 25.0124 31.7837C24.2766 31.0594 23.7344 29.8165 23.7344 27.6719H21.7344ZM29.2344 35.0547V37.0547H33.6875V35.0547V33.0547H29.2344V35.0547ZM33.6875 35.0547V37.0547C34.3204 37.0547 34.4219 37.203 34.3604 37.1469C34.3292 37.1184 34.3251 37.096 34.3356 37.1248C34.3503 37.1651 34.3828 37.2828 34.3828 37.5156H36.3828H38.3828C38.3828 36.3378 38.0519 35.1009 37.0575 34.193C36.0976 33.3165 34.8515 33.0547 33.6875 33.0547V35.0547ZM36.3828 37.5156H34.3828C34.3828 37.6837 34.3514 37.7333 34.3566 37.7234C34.3652 37.7068 34.3674 37.7231 34.2988 37.7672C34.1057 37.8915 33.5607 38.0938 32.375 38.0938V40.0938V42.0938C33.8612 42.0938 35.3201 41.8664 36.4629 41.1313C37.7568 40.2989 38.3828 38.9887 38.3828 37.5156H36.3828ZM32.375 40.0938V38.0938C28.9981 38.0938 26.1023 37.5775 23.649 36.5962L22.9062 38.4531L22.1635 40.3101C25.1789 41.5163 28.5956 42.0938 32.375 42.0938V40.0938ZM22.9062 38.4531H20.9062V43.6094H22.9062H24.9062V38.4531H22.9062ZM22.9062 43.6094L22.2603 45.5022C24.4025 46.2333 26.7077 46.6925 29.1665 46.8919L29.3281 44.8984L29.4898 42.905C27.3236 42.7293 25.3475 42.3292 23.5522 41.7166L22.9062 43.6094ZM29.3281 44.8984H27.3281V49H29.3281H31.3281V44.8984H29.3281ZM29.3281 49V51H35.3047V49V47H29.3281V49ZM35.3047 49H37.3047V44.8047H35.3047H33.3047V49H35.3047ZM35.3047 44.8047L35.5911 46.7841C38.2847 46.3943 40.5821 45.4663 42.2079 43.7881C43.8649 42.0779 44.5938 39.8281 44.5938 37.2812H42.5938H40.5938C40.5938 39.0469 40.1077 40.2073 39.3351 41.0048C38.5312 41.8345 37.184 42.5119 35.0183 42.8253L35.3047 44.8047ZM42.5938 37.2812H44.5938C44.5938 34.4544 43.7988 31.9837 41.8809 30.2576C40.003 28.5675 37.3843 27.8984 34.3906 27.8984V29.8984V31.8984C36.8657 31.8984 38.3485 32.4599 39.205 33.2307C40.0215 33.9655 40.5938 35.1862 40.5938 37.2812H42.5938ZM34.3906 29.8984V27.8984H30.4062V29.8984V31.8984H34.3906V29.8984ZM30.4062 29.8984V27.8984C29.6612 27.8984 29.475 27.7347 29.4954 27.7518C29.5147 27.768 29.5233 27.7883 29.5187 27.7765C29.5091 27.7524 29.4766 27.6535 29.4766 27.4375H27.4766H25.4766C25.4766 28.6665 25.8589 29.9211 26.9226 30.8146C27.9195 31.652 29.1982 31.8984 30.4062 31.8984V29.8984ZM27.4766 27.4375H29.4766C29.4766 27.3485 29.4931 27.3616 29.4672 27.4013C29.448 27.4308 29.4681 27.3761 29.6473 27.2844C30.0634 27.0715 30.9416 26.8594 32.5156 26.8594V24.8594V22.8594C30.7302 22.8594 29.0889 23.077 27.8254 23.7234C27.1647 24.0614 26.5549 24.5438 26.1158 25.2178C25.6699 25.9021 25.4766 26.6671 25.4766 27.4375H27.4766ZM32.5156 24.8594V26.8594C35.4867 26.8594 38.2009 27.3657 40.6791 28.357L41.4219 26.5L42.1647 24.643C39.1741 23.4468 35.9508 22.8594 32.5156 22.8594V24.8594ZM41.4219 26.5H43.4219V21.3438H41.4219H39.4219V26.5H41.4219ZM41.4219 21.3438L42.0725 19.4525C39.9608 18.7261 37.7619 18.2637 35.4805 18.0624L35.3047 20.0547L35.1289 22.0469C37.0974 22.2206 38.9767 22.6176 40.7713 23.235L41.4219 21.3438ZM35.3047 20.0547H37.3047V15.4844H35.3047H33.3047V20.0547H35.3047ZM35.3047 15.4844V13.4844H29.3281V15.4844V17.4844H35.3047V15.4844Z" fill="#8B0836" mask="url(#path-1-inside-1_29_295)"/>
</svg>
