<svg width="49" height="35" viewBox="0 0 49 35" fill="none" xmlns="http://www.w3.org/2000/svg">
<path d="M45.5 28C47.433 28 49 29.567 49 31.5C49 33.433 47.433 35 45.5 35H3.5C1.567 35 0 33.433 0 31.5C0 29.567 1.567 28 3.5 28H45.5ZM45.5 14C47.433 14 49 15.567 49 17.5C49 19.433 47.433 21 45.5 21H3.5C1.567 21 0 19.433 0 17.5C0 15.567 1.567 14 3.5 14H45.5ZM45.5 0C47.433 6.76469e-07 49 1.567 49 3.5C49 5.433 47.433 7 45.5 7H3.5C1.567 7 0 5.433 0 3.5C0 1.567 1.567 8.45586e-08 3.5 0H45.5Z" fill="white"/>
</svg>
